# Blender 3.6.5
# www.blender.org
mtllib building.mtl
o Cube
v 1.000000 5.623547 -1.000000
v 1.000000 0.000000 -1.000000
v 1.000000 5.623547 1.000000
v 1.000000 0.000000 1.000000
v -1.000000 5.623547 -1.000000
v -1.000000 0.000000 -1.000000
v -1.000000 5.623547 1.000000
v -1.000000 0.000000 1.000000
vn -0.0000 1.0000 -0.0000
vn -0.0000 -0.0000 1.0000
vn -1.0000 -0.0000 -0.0000
vn -0.0000 -1.0000 -0.0000
vn 1.0000 -0.0000 -0.0000
vn -0.0000 -0.0000 -1.0000
vt 0.633174 0.905660
vt 0.633070 0.943684
vt 0.600470 0.943580
vt 0.600575 0.905556
vt 0.042147 -0.092774
vt 0.039152 0.995355
vt -0.893744 0.992360
vt -0.890748 -0.095769
vt 2.840834 -0.083788
vt 2.837838 1.004341
vt 1.904943 1.001346
vt 1.907938 -0.086784
vt 0.585815 0.103270
vt 0.585781 0.112289
vt 0.575270 0.112264
vt 0.575304 0.103245
vt 0.975042 -0.089779
vt 0.972047 0.998351
s 0
usemtl Material
f 1/1/1 5/2/1 7/3/1 3/4/1
f 4/5/2 3/6/2 7/7/2 8/8/2
f 8/9/3 7/10/3 5/11/3 6/12/3
f 6/13/4 2/14/4 4/15/4 8/16/4
f 2/17/5 1/18/5 3/6/5 4/5/5
f 6/12/6 5/11/6 1/18/6 2/17/6
